<svg width="82" height="82" viewBox="0 0 82 82" fill="none" xmlns="http://www.w3.org/2000/svg">
<g filter="url(#filter0_i_253_2130)">
<path d="M35.0752 5.51965C54.4466 2.47141 72.6423 15.5747 75.7162 34.7861C78.7898 53.9973 65.5779 72.0423 46.2066 75.0908C41.2662 75.8683 36.4027 75.5923 31.8466 74.4353C31.5545 74.6737 31.2214 74.879 30.8449 75.0358L16.251 81.1147C13.4053 82.3 10.3259 79.9582 10.7157 76.9055L12.6239 61.9564C9.04448 57.4094 6.54198 51.9261 5.5658 45.8254C2.49196 26.6139 15.7036 8.56809 35.0752 5.51965Z" fill="#FE4B4A"/>
<g filter="url(#filter1_i_253_2130)">
<path d="M27.3867 47.0237C27.3867 46.0797 28.152 45.3144 29.096 45.3144H61.489C62.433 45.3144 63.1983 46.0797 63.1983 47.0237C63.1983 56.4639 55.5455 64.1167 46.1053 64.1167H44.4797C35.0395 64.1167 27.3867 56.4639 27.3867 47.0237Z" fill="white"/>
</g>
</g>
<defs>
<filter id="filter0_i_253_2130" x="3.12207" y="2.07935" width="73.0381" height="79.349" filterUnits="userSpaceOnUse" color-interpolation-filters="sRGB">
<feFlood flood-opacity="0" result="BackgroundImageFix"/>
<feBlend mode="normal" in="SourceGraphic" in2="BackgroundImageFix" result="shape"/>
<feColorMatrix in="SourceAlpha" type="matrix" values="0 0 0 0 0 0 0 0 0 0 0 0 0 0 0 0 0 0 127 0" result="hardAlpha"/>
<feOffset dx="-2" dy="-3"/>
<feGaussianBlur stdDeviation="2"/>
<feComposite in2="hardAlpha" operator="arithmetic" k2="-1" k3="1"/>
<feColorMatrix type="matrix" values="0 0 0 0 0 0 0 0 0 0 0 0 0 0 0 0 0 0 0.25 0"/>
<feBlend mode="normal" in2="shape" result="effect1_innerShadow_253_2130"/>
</filter>
<filter id="filter1_i_253_2130" x="27.3867" y="45.3144" width="36.3115" height="19.3023" filterUnits="userSpaceOnUse" color-interpolation-filters="sRGB">
<feFlood flood-opacity="0" result="BackgroundImageFix"/>
<feBlend mode="normal" in="SourceGraphic" in2="BackgroundImageFix" result="shape"/>
<feColorMatrix in="SourceAlpha" type="matrix" values="0 0 0 0 0 0 0 0 0 0 0 0 0 0 0 0 0 0 127 0" result="hardAlpha"/>
<feOffset dx="0.5" dy="0.5"/>
<feGaussianBlur stdDeviation="1"/>
<feComposite in2="hardAlpha" operator="arithmetic" k2="-1" k3="1"/>
<feColorMatrix type="matrix" values="0 0 0 0 0 0 0 0 0 0 0 0 0 0 0 0 0 0 0.25 0"/>
<feBlend mode="normal" in2="shape" result="effect1_innerShadow_253_2130"/>
</filter>
</defs>
</svg>
