<svg width="99" height="110" viewBox="0 0 99 110" fill="none" xmlns="http://www.w3.org/2000/svg">
<g filter="url(#filter0_i_253_2124)">
<path d="M49.5 0C76.8381 0 98.9999 22.1619 99 49.5C99 76.8382 76.8382 99 49.5 99C47.8323 99 46.1839 98.917 44.5586 98.7559L30.3525 108.741C27.2035 110.954 22.8392 108.928 22.4971 105.095L21.1572 90.084C8.3665 81.1346 0 66.2954 0 49.5C7.21569e-05 22.1619 22.1619 5.12896e-05 49.5 0Z" fill="#FED766"/>
<rect x="30.7588" y="35.1531" width="15.3795" height="26.3648" rx="7.68973" fill="white"/>
<rect x="68.1094" y="35.1531" width="15.3795" height="26.3648" rx="7.68973" fill="white"/>
</g>
<defs>
<filter id="filter0_i_253_2124" x="-2" y="-2" width="101" height="111.657" filterUnits="userSpaceOnUse" color-interpolation-filters="sRGB">
<feFlood flood-opacity="0" result="BackgroundImageFix"/>
<feBlend mode="normal" in="SourceGraphic" in2="BackgroundImageFix" result="shape"/>
<feColorMatrix in="SourceAlpha" type="matrix" values="0 0 0 0 0 0 0 0 0 0 0 0 0 0 0 0 0 0 127 0" result="hardAlpha"/>
<feOffset dx="-2" dy="-2"/>
<feGaussianBlur stdDeviation="2.5"/>
<feComposite in2="hardAlpha" operator="arithmetic" k2="-1" k3="1"/>
<feColorMatrix type="matrix" values="0 0 0 0 0 0 0 0 0 0 0 0 0 0 0 0 0 0 0.25 0"/>
<feBlend mode="normal" in2="shape" result="effect1_innerShadow_253_2124"/>
</filter>
</defs>
</svg>
